<?xml version="1.0" encoding="utf-8"?>
<!-- Generator: Adobe Illustrator 16.0.0, SVG Export Plug-In . SVG Version: 6.00 Build 0)  -->
<!DOCTYPE svg PUBLIC "-//W3C//DTD SVG 1.1//EN" "http://www.w3.org/Graphics/SVG/1.1/DTD/svg11.dtd">
<svg version="1.1" id="Layer_1" xmlns="http://www.w3.org/2000/svg" xmlns:xlink="http://www.w3.org/1999/xlink" x="0px" y="0px"
	 width="200px" height="200px" viewBox="0 0 200 200" enable-background="new 0 0 200 200" xml:space="preserve">
<rect fill="#556080" width="200" height="200"/>
<path fill="#E7ECED" d="M152.791,156.33h-0.358c-1.214-0.996-2.536-1.899-3.979-2.621l-26.265-13.127
	c-3.393-1.7-5.543-5.166-5.543-8.971v-10.296c0.742-0.837,1.591-1.924,2.483-3.195c3.591-5.064,6.286-10.623,8.165-16.454
	c3.378-1.041,5.861-4.151,5.861-7.842V82.826c0-2.424-1.075-4.592-2.757-6.105V60.815c0,0,3.271-24.734-30.249-24.734
	c-33.502,0-30.234,24.734-30.234,24.734v15.906c-1.679,1.513-2.756,3.681-2.756,6.105v10.998c0,2.889,1.532,5.434,3.803,6.918
	c2.757,11.966,9.95,20.573,9.95,20.573v10.058c0,3.646-2.012,7.023-5.222,8.782l-24.525,13.373c-1.44,0.791-2.742,1.761-3.937,2.802
	c0,0-22.917,16.035-29.012,43.67h80.064h3.457h80.064C175.708,172.365,152.791,156.33,152.791,156.33z"/>
</svg>
